<svg xmlns="http://www.w3.org/2000/svg" viewBox="0 0 24 24" fill="none" stroke="currentColor" stroke-width="1.8" stroke-linecap="round" stroke-linejoin="round" aria-hidden="true">
  <circle cx="12" cy="12" r="3.2" />
  <path d="M19.4 15a1.8 1.8 0 0 0 .36 1.98l.06.06a2.2 2.2 0 0 1 0 3.11 2.2 2.2 0 0 1-3.11 0l-.06-.06A1.8 1.8 0 0 0 15 19.4a1.8 1.8 0 0 0-1.08 1.64V21a2.2 2.2 0 0 1-4.4 0v-.06A1.8 1.8 0 0 0 8.6 19.4a1.8 1.8 0 0 0-1.98.36l-.06.06a2.2 2.2 0 0 1-3.11 0 2.2 2.2 0 0 1 0-3.11l.06-.06A1.8 1.8 0 0 0 4.6 15a1.8 1.8 0 0 0-1.64-1.08H3a2.2 2.2 0 0 1 0-4.4h-.04A1.8 1.8 0 0 0 4.6 8.6a1.8 1.8 0 0 0-.36-1.98l-.06-.06a2.2 2.2 0 0 1 0-3.11 2.2 2.2 0 0 1 3.11 0l.06.06A1.8 1.8 0 0 0 8.6 4.6a1.8 1.8 0 0 0 1.08-1.64V3a2.2 2.2 0 0 1 4.4 0v.06A1.8 1.8 0 0 0 15 4.6c.7 0 1.36-.26 1.86-.74l.06-.06a2.2 2.2 0 0 1 3.11 0 2.2 2.2 0 0 1 0 3.11l-.06.06A1.8 1.8 0 0 0 19.4 9c0 .7.26 1.36.74 1.86l.06.06a2.2 2.2 0 0 1 0 3.11 2.2 2.2 0 0 1-3.11 0l-.06-.06A1.8 1.8 0 0 0 15 13.6c-.7 0-1.36.26-1.86.74Z" />
</svg>
