<svg width="24" height="24" viewBox="0 0 24 24" xmlns="http://www.w3.org/2000/svg" role="img" aria-label="GitHub">
  <path fill="#181717" d="M12 .297C5.37.297 0 5.67 0 12.297c0 5.303 3.438 9.8 8.205 11.385.6.113.82-.258.82-.577v-2.234c-3.338.724-4.033-1.416-4.033-1.416-.546-1.387-1.333-1.757-1.333-1.757-1.09-.745.083-.729.083-.729 1.205.084 1.84 1.237 1.84 1.237 1.07 1.835 2.807 1.304 3.492.997.108-.775.418-1.305.762-1.605-2.665-.303-5.466-1.333-5.466-5.93 0-1.31.468-2.381 1.236-3.221-.124-.303-.535-1.524.117-3.176 0 0 1.008-.323 3.301 1.23a11.51 11.51 0 0 1 6.003 0c2.291-1.553 3.297-1.23 3.297-1.23.654 1.653.243 2.874.119 3.176.77.84 1.235 1.911 1.235 3.221 0 4.609-2.803 5.624-5.475 5.921.43.371.823 1.103.823 2.222v3.293c0 .321.217.694.825.576C20.565 22.097 24 17.6 24 12.297c0-6.627-5.373-12-12-12z"/>
</svg>
